<svg width="49" height="49" viewBox="0 0 49 49" fill="none" xmlns="http://www.w3.org/2000/svg">
<g opacity="0.7">
<path d="M35.2004 13.6475H35.2204M14.2004 4.64746H34.2004C39.7233 4.64746 44.2004 9.12461 44.2004 14.6475V34.6475C44.2004 40.1703 39.7233 44.6475 34.2004 44.6475H14.2004C8.67756 44.6475 4.20041 40.1703 4.20041 34.6475V14.6475C4.20041 9.12461 8.67756 4.64746 14.2004 4.64746ZM32.2004 23.3875C32.4472 25.052 32.1629 26.7519 31.3879 28.2455C30.6129 29.7391 29.3867 30.9503 27.8837 31.7068C26.3806 32.4633 24.6773 32.7267 23.016 32.4593C21.3547 32.192 19.8199 31.4076 18.6301 30.2178C17.4402 29.0279 16.6559 27.4932 16.3885 25.8319C16.1212 24.1706 16.3845 22.4672 17.1411 20.9642C17.8976 19.4612 19.1088 18.2349 20.6024 17.4599C22.096 16.6849 23.7959 16.4006 25.4604 16.6475C27.1583 16.8992 28.7301 17.6904 29.9438 18.9041C31.1575 20.1178 31.9486 21.6896 32.2004 23.3875Z" stroke="white" stroke-width="4" stroke-linecap="round" stroke-linejoin="round"/>
</g>
</svg>
