<svg width="49" height="49" viewBox="0 0 49 49" fill="none" xmlns="http://www.w3.org/2000/svg">
<g opacity="0.7">
<path d="M32.9149 16.6475C36.0975 16.6475 39.1497 17.9117 41.4002 20.1622C43.6506 22.4126 44.9149 25.4649 44.9149 28.6475V42.6475H36.9149V28.6475C36.9149 27.5866 36.4935 26.5692 35.7433 25.819C34.9932 25.0689 33.9758 24.6475 32.9149 24.6475C31.854 24.6475 30.8366 25.0689 30.0865 25.819C29.3363 26.5692 28.9149 27.5866 28.9149 28.6475V42.6475H20.9149V28.6475C20.9149 25.4649 22.1792 22.4126 24.4296 20.1622C26.68 17.9117 29.7323 16.6475 32.9149 16.6475Z" stroke="white" stroke-width="4" stroke-linecap="round" stroke-linejoin="round"/>
<path d="M12.9149 18.6475H4.91489V42.6475H12.9149V18.6475Z" stroke="white" stroke-width="4" stroke-linecap="round" stroke-linejoin="round"/>
<path d="M8.91489 12.6475C11.124 12.6475 12.9149 10.8566 12.9149 8.64746C12.9149 6.43832 11.124 4.64746 8.91489 4.64746C6.70575 4.64746 4.91489 6.43832 4.91489 8.64746C4.91489 10.8566 6.70575 12.6475 8.91489 12.6475Z" stroke="white" stroke-width="4" stroke-linecap="round" stroke-linejoin="round"/>
</g>
</svg>
