<svg width="1441" height="693" viewBox="0 0 1441 693" fill="none" xmlns="http://www.w3.org/2000/svg">
<g opacity="0.55">
<path opacity="0.6" d="M0.994873 692.126V612.441L1227.69 411.547L1412.31 461.49L0.994873 692.126Z" fill="#A60003" stroke="black"/>
<path opacity="0.54" d="M994.895 499.162C987.748 500.289 982.471 495.945 981.271 488.335C980.083 480.796 983.934 474.941 991.153 473.803C996.665 472.935 1001.19 475.502 1002.93 480.512L999.654 481.028C998.15 477.73 995.193 476.082 991.459 476.671C986.232 477.495 983.528 482.076 984.436 487.836C985.339 493.562 989.184 497.147 994.411 496.323C998.252 495.717 1000.6 493.27 1000.97 489.639L1004.25 489.124C1004.13 494.426 1000.51 498.276 994.895 499.162ZM1009.27 496.678L1005.34 471.786L1008.44 471.298L1012.36 496.191L1009.27 496.678ZM1020.21 494.954L1017.18 495.43L1013.26 470.537L1016.1 470.089L1032.5 487.184L1029.48 467.981L1032.5 467.505L1036.42 492.398L1033.58 492.846L1017.18 475.751L1020.21 494.954ZM1041.25 491.637L1037.33 466.744L1053.19 464.244L1053.63 467.089L1040.87 469.101L1042.12 477.067L1052.76 475.391L1053.21 478.236L1042.57 479.912L1043.9 488.304L1057.12 486.219L1057.57 489.064L1041.25 491.637ZM1061.04 488.516L1057.12 463.624L1061.03 463.007L1073.11 482.278L1078.56 460.244L1082.4 459.638L1086.33 484.531L1083.31 485.008L1080.21 465.378L1075.06 486.308L1072.32 486.74L1060.97 468.41L1064.07 488.04L1061.04 488.516ZM1092.33 483.586L1089.13 484.09L1094.7 457.701L1098.36 457.123L1111.74 480.525L1108.44 481.046L1104.74 474.74L1093.9 476.45L1092.33 483.586ZM1096.97 460.804L1094.38 473.495L1103.38 472.077L1096.97 460.804ZM1106.01 458.833L1105.56 455.988L1124.8 452.956L1125.25 455.801L1117.17 457.073L1120.65 479.121L1117.56 479.609L1114.08 457.561L1106.01 458.833ZM1151.02 461.578C1152.18 468.904 1148.14 475.006 1141.14 476.11C1134.13 477.214 1128.42 472.648 1127.27 465.323C1126.11 457.997 1130.14 451.895 1137.15 450.791C1144.15 449.686 1149.87 454.253 1151.02 461.578ZM1130.43 464.824C1131.33 470.549 1135.5 474.084 1140.69 473.265C1145.88 472.447 1148.76 467.802 1147.86 462.077C1146.95 456.352 1142.79 452.817 1137.6 453.636C1132.4 454.454 1129.53 459.098 1130.43 464.824ZM1167.7 471.923C1160.8 473.011 1155.19 468.647 1154.01 461.108C1152.82 453.569 1156.67 447.714 1163.89 446.576C1169.4 445.707 1174.06 448.252 1175.73 453.238L1172.42 453.759C1171.02 450.444 1168.03 448.838 1164.26 449.432C1159.04 450.256 1156.26 454.848 1157.17 460.609C1158.08 466.37 1162.13 469.885 1167.29 469.073C1171.88 468.35 1174.75 465.09 1174.06 460.681L1173.92 459.827L1166.45 461.004L1166.01 458.159L1176.5 456.506L1178.62 469.983L1175.95 470.404L1175.17 466.81C1174.32 468.803 1171.97 471.251 1167.7 471.923ZM1183.46 469.221L1179.54 444.328L1189.07 442.826C1194.04 442.041 1197.82 444.507 1198.56 449.165C1199.11 452.65 1197.43 455.684 1194.37 457.077L1201.56 466.367L1198.07 466.917L1191.3 458.181L1185.04 459.167L1186.55 468.733L1183.46 469.221ZM1189.3 445.704L1183.08 446.685L1184.6 456.322L1190.78 455.347C1194.06 454.831 1195.85 452.58 1195.39 449.664C1194.93 446.748 1192.54 445.194 1189.3 445.704ZM1205.89 465.686L1202.69 466.19L1208.26 439.801L1211.92 439.223L1225.3 462.625L1221.99 463.146L1218.3 456.84L1207.46 458.55L1205.89 465.686ZM1210.53 442.904L1207.94 455.595L1216.94 454.177L1210.53 442.904ZM1228.12 462.181L1224.19 437.288L1233.76 435.781C1238.74 434.996 1242.48 437.467 1243.22 442.126C1243.95 446.784 1241.15 450.323 1236.18 451.107L1229.7 452.127L1231.21 461.693L1228.12 462.181ZM1233.96 438.665L1227.74 439.646L1229.26 449.283L1235.44 448.307C1238.72 447.792 1240.52 445.576 1240.05 442.625C1239.59 439.673 1237.23 438.149 1233.96 438.665ZM1249.23 458.853L1245.31 433.96L1248.4 433.473L1250.11 444.283L1262.98 442.254L1261.28 431.443L1264.37 430.956L1268.29 455.848L1265.2 456.336L1263.43 445.099L1250.56 447.128L1252.33 458.365L1249.23 458.853ZM1278.96 444.727L1267.1 430.525L1270.73 429.953L1280 441.138L1285.49 427.627L1288.97 427.078L1282.06 444.24L1283.51 453.45L1280.42 453.938L1278.96 444.727Z" fill="#929292"/>
<path opacity="0.54" d="M463.617 587.354L455.668 588.713L451.423 563.873L459.372 562.515C467.143 561.187 472.712 565.348 473.985 572.8C475.253 580.216 471.388 586.026 463.617 587.354ZM454.995 566.184L458.27 585.346L463.132 584.516C469.164 583.485 471.815 579.124 470.827 573.34C469.832 567.52 465.889 564.323 459.857 565.353L454.995 566.184ZM480.092 584.539L476.898 585.085L482.128 558.626L485.783 558.001L499.467 581.228L496.167 581.792L492.395 575.534L481.572 577.383L480.092 584.539ZM484.443 561.7L482.015 574.422L490.993 572.888L484.443 561.7ZM493.453 559.612L492.968 556.773L512.165 553.492L512.65 556.331L504.595 557.708L508.355 579.709L505.268 580.236L501.508 558.235L493.453 559.612ZM517.345 578.173L514.151 578.718L519.381 552.259L523.036 551.635L536.72 574.861L533.42 575.425L529.647 569.167L518.824 571.017L517.345 578.173ZM521.695 555.333L519.268 568.056L528.246 566.522L521.695 555.333ZM539.53 574.381L535.285 549.541L544.086 548.037C549.373 547.134 552.755 549.185 553.44 553.195C553.925 556.034 552.661 558.04 550.459 559.256C553.169 559.304 555.767 560.613 556.38 564.197C557.132 568.597 554.47 571.828 548.579 572.835L539.53 574.381ZM544.707 550.816L538.852 551.817L540.216 559.801L546.071 558.801C549.265 558.255 550.82 556.455 550.389 553.936C549.965 551.452 547.936 550.264 544.707 550.816ZM546.651 561.55L540.689 562.569L542.138 571.05L548.1 570.031C551.932 569.376 553.682 567.434 553.246 564.879C552.767 562.076 550.341 560.92 546.651 561.55ZM561.84 570.568L558.646 571.114L563.876 544.655L567.531 544.03L581.215 567.257L577.915 567.821L574.143 561.563L563.32 563.413L561.84 570.568ZM566.191 547.729L563.763 560.452L572.741 558.918L566.191 547.729ZM580.743 558.975L583.936 558.429C584.755 561.722 587.721 563.479 591.518 562.83C594.854 562.26 596.97 560.328 596.51 557.631C595.982 554.544 592.821 554.427 588.95 554.431C584.825 554.442 580.485 553.832 579.66 549.006C578.938 544.784 581.895 541.357 586.934 540.495C592.47 539.549 596.404 542.054 597.452 546.477L594.258 547.023C593.412 544.209 590.784 542.723 587.413 543.299C584.184 543.851 582.262 545.64 582.717 548.301C583.226 551.282 586.346 551.37 590.181 551.372C594.341 551.355 598.724 551.994 599.548 556.82C600.282 561.114 597.178 564.748 591.962 565.64C585.894 566.677 581.757 563.841 580.743 558.975ZM604.68 563.247L600.434 538.407L616.261 535.703L616.746 538.542L604.007 540.719L605.365 548.667L615.975 546.854L616.461 549.693L605.85 551.506L607.282 559.881L620.482 557.625L620.967 560.464L604.68 563.247ZM633.719 558.284L629.474 533.445L633.378 532.777L645.702 551.891L650.872 529.788L654.705 529.133L658.95 553.973L655.933 554.488L652.586 534.9L647.701 555.895L644.968 556.362L633.388 538.181L636.736 557.769L633.719 558.284ZM664.935 552.95L661.742 553.496L666.971 527.036L670.626 526.412L684.31 549.639L681.01 550.203L677.238 543.945L666.415 545.794L664.935 552.95ZM669.286 530.11L666.859 542.833L675.837 541.299L669.286 530.11ZM690.137 548.643L687.121 549.158L682.876 524.318L685.715 523.833L702.332 540.715L699.057 521.553L702.074 521.038L706.319 545.877L703.48 546.363L686.863 529.481L690.137 548.643ZM712.307 544.854L709.113 545.4L714.343 518.941L717.998 518.316L731.682 541.543L728.382 542.107L724.61 535.849L713.787 537.699L712.307 544.854ZM716.658 522.015L714.23 534.737L723.208 533.203L716.658 522.015ZM744.207 539.622C737.323 540.798 731.659 536.507 730.373 528.984C729.088 521.461 732.863 515.557 740.067 514.326C745.567 513.386 750.265 515.87 751.989 520.834L748.689 521.398C747.249 518.102 744.242 516.534 740.481 517.177C735.264 518.068 732.549 522.696 733.532 528.444C734.514 534.193 738.612 537.656 743.757 536.777C748.335 535.994 751.168 532.698 750.416 528.298L750.271 527.446L742.819 528.72L742.334 525.881L752.802 524.092L755.1 537.541L752.439 537.996L751.607 534.413C750.781 536.416 748.465 538.894 744.207 539.622ZM759.929 536.716L755.684 511.876L771.51 509.171L771.995 512.01L759.256 514.187L760.615 522.136L771.225 520.323L771.71 523.161L761.1 524.975L762.531 533.349L775.731 531.093L776.217 533.932L759.929 536.716ZM779.681 533.34L775.436 508.5L779.34 507.833L791.664 526.946L796.834 504.843L800.667 504.188L804.912 529.028L801.895 529.544L798.548 509.956L793.663 530.951L790.93 531.418L779.35 513.237L782.698 532.825L779.681 533.34ZM809.726 528.205L805.481 503.366L821.308 500.661L821.793 503.5L809.054 505.677L810.412 513.626L821.022 511.812L821.507 514.651L810.897 516.464L812.328 524.839L825.529 522.583L826.014 525.422L809.726 528.205ZM832.495 524.314L829.479 524.83L825.234 499.99L828.073 499.505L844.69 516.387L841.415 497.225L844.432 496.709L848.677 521.549L845.838 522.034L829.221 505.152L832.495 524.314ZM848.031 499.016L847.546 496.177L866.743 492.896L867.229 495.735L859.173 497.111L862.933 519.113L859.846 519.64L856.086 497.639L848.031 499.016Z" fill="#929292"/>
<g opacity="0.48">
<path opacity="0.6" d="M0.933655 82.7676V1L1440 389.069V470.674L0.933655 82.7676Z" fill="#A60003" stroke="black"/>
<path d="M6.23736 51.0762L3.12584 50.1729L19.3826 28.652L22.9436 29.6858L25.114 56.5564L21.8987 55.623L21.2373 48.346L10.6927 45.2847L6.23736 51.0762ZM20.1231 32.4282L12.3845 42.8145L21.1314 45.3538L20.1231 32.4282ZM27.8522 57.3514L34.8781 33.1506L44.1781 35.8506C49.0183 37.2557 51.3558 41.0832 50.041 45.6122C48.7261 50.1412 44.6923 52.1565 39.8522 50.7513L33.56 48.9246L30.86 58.2246L27.8522 57.3514ZM43.1331 38.5461L37.0829 36.7896L34.3629 46.1588L40.3785 47.9052C43.5592 48.8286 46.131 47.5885 46.964 44.7189C47.7971 41.8494 46.3138 39.4695 43.1331 38.5461ZM48.3796 63.3108L55.4055 39.1101L64.7055 41.81C69.5457 43.2152 71.8833 47.0427 70.5684 51.5717C69.2536 56.1007 65.2197 58.1159 60.3796 56.7108L54.0874 54.884L51.3874 64.184L48.3796 63.3108ZM63.6606 44.5056L57.6104 42.7491L54.8904 52.1182L60.906 53.8647C64.0866 54.7881 66.6584 53.5479 67.4915 50.6784C68.3245 47.8089 66.8412 45.429 63.6606 44.5056ZM85.6996 74.1454L77.9553 71.8972L84.9812 47.6964L92.7255 49.9447C100.297 52.1428 103.49 58.3178 101.382 65.5781C99.2843 72.8037 93.271 76.3435 85.6996 74.1454ZM87.1861 51.3354L81.7661 70.0046L86.5026 71.3796C92.3799 73.0859 96.6691 70.3201 98.3051 64.6848C99.9512 59.0149 97.7999 54.4168 91.9225 52.7105L87.1861 51.3354ZM101.656 78.778L108.682 54.5772L124.102 59.0537L123.299 61.8195L110.887 58.2162L108.639 65.9605L118.976 68.9615L118.173 71.7273L107.836 68.7263L105.467 76.8854L118.328 80.6191L117.525 83.3849L101.656 78.778ZM127.438 86.2629L125.752 59.5328L128.933 60.4562L130.339 83.2439L143.695 64.742L146.807 65.6453L131.068 87.3168L127.438 86.2629ZM142.441 90.6185L149.467 66.4177L164.886 70.8942L164.083 73.66L151.672 70.0567L149.424 77.801L159.761 80.802L158.958 83.5678L148.621 80.5668L146.252 88.7259L159.113 92.4597L158.31 95.2255L142.441 90.6185ZM175.722 100.28L161.686 96.2055L168.712 72.0047L171.719 72.8779L165.496 94.3129L176.525 97.5147L175.722 100.28ZM202.418 94.9106C200.351 102.033 194.109 105.843 187.298 103.866C180.487 101.889 177.256 95.3278 179.324 88.2059C181.392 81.084 187.634 77.2732 194.444 79.2504C201.255 81.2277 204.486 87.7887 202.418 94.9106ZM182.401 89.0992C180.785 94.6654 183.053 99.6349 188.101 101.1C193.149 102.566 197.725 99.5835 199.341 94.0173C200.957 88.4511 198.689 83.4816 193.641 82.0162C188.594 80.5508 184.017 83.533 182.401 89.0992ZM202.707 108.115L209.733 83.9138L219.033 86.6138C223.873 88.019 226.21 91.8464 224.896 96.3754C223.581 100.904 219.547 102.92 214.707 101.515L208.415 99.6878L205.715 108.988L202.707 108.115ZM217.988 89.3093L211.938 87.5528L209.217 96.922L215.233 98.6684C218.414 99.5918 220.986 98.3517 221.819 95.4822C222.652 92.6126 221.168 90.2327 217.988 89.3093ZM223.234 114.074L230.26 89.8733L234.063 90.9774L236.806 113.553L251.107 95.9256L254.841 97.0096L247.815 121.21L244.877 120.357L250.417 101.273L236.856 118.029L234.194 117.256L231.713 95.8432L226.173 114.927L223.234 114.074ZM252.506 122.572L259.532 98.3714L274.951 102.848L274.148 105.614L261.737 102.01L259.489 109.755L269.826 112.756L269.023 115.522L258.686 112.52L256.317 120.68L269.178 124.413L268.375 127.179L252.506 122.572ZM274.689 129.012L271.751 128.159L278.776 103.958L281.542 104.761L289.122 127.204L294.541 108.535L297.48 109.388L290.454 133.589L287.688 132.786L280.109 110.343L274.689 129.012ZM299.711 113.035L300.514 110.269L319.218 115.699L318.415 118.465L310.567 116.187L304.344 137.622L301.336 136.748L307.559 115.313L299.711 113.035Z" fill="#929292"/>
<path d="M23.374 661.396L8.96689 663.859L4.72184 639.019L7.80908 638.491L11.569 660.492L22.8889 658.558L23.374 661.396ZM45.047 644.91C46.2963 652.22 42.3444 658.374 35.3538 659.568C28.3631 660.763 22.592 656.271 21.3427 648.961C20.0934 641.651 24.0453 635.497 31.036 634.303C38.0266 633.108 43.7978 637.6 45.047 644.91ZM24.5009 648.421C25.4773 654.134 29.6877 657.615 34.8686 656.729C40.0495 655.844 42.8652 651.163 41.8888 645.45C40.9125 639.736 36.702 636.256 31.5211 637.141C26.3402 638.027 23.5246 642.708 24.5009 648.421ZM61.8598 655.038C54.9756 656.215 49.3118 651.924 48.0262 644.401C46.7405 636.878 50.5159 630.974 57.7194 629.742C63.2197 628.802 67.9173 631.287 69.6422 636.251L66.342 636.815C64.9021 633.518 61.8951 631.951 58.1336 632.593C52.9172 633.485 50.2019 638.112 51.1844 643.861C52.1668 649.61 56.2648 653.073 61.4102 652.194C65.9878 651.411 68.821 648.115 68.069 643.715L67.9235 642.863L60.4715 644.137L59.9864 641.298L70.4546 639.509L72.753 652.958L70.0916 653.413L69.2601 649.829C68.4338 651.833 66.1181 654.311 61.8598 655.038ZM98.2407 635.819C99.49 643.129 95.5381 649.283 88.5474 650.478C81.5568 651.672 75.7856 647.18 74.5364 639.87C73.2871 632.56 77.239 626.407 84.2296 625.212C91.2203 624.017 96.9914 628.509 98.2407 635.819ZM77.6946 639.331C78.6709 645.044 82.8814 648.524 88.0623 647.639C93.2432 646.753 96.0588 642.072 95.0825 636.359C94.1061 630.646 89.8956 627.165 84.7148 628.051C79.5339 628.936 76.7182 633.617 77.6946 639.331ZM121.501 644.627L113.552 645.985L109.307 621.145L117.256 619.787C125.027 618.459 130.596 622.62 131.869 630.072C133.137 637.489 129.272 643.299 121.501 644.627ZM112.88 623.457L116.154 642.619L121.016 641.788C127.048 640.757 129.7 636.396 128.711 630.612C127.717 624.792 123.774 621.595 117.741 622.626L112.88 623.457ZM137.879 641.828L133.634 616.988L149.461 614.283L149.946 617.122L137.207 619.299L138.565 627.248L149.175 625.435L149.66 628.274L139.05 630.087L140.481 638.461L153.682 636.205L154.167 639.044L137.879 641.828ZM155.25 630.496L158.443 629.95C159.262 633.243 162.228 635.001 166.025 634.352C169.361 633.782 171.477 631.849 171.017 629.153C170.489 626.065 167.328 625.948 163.457 625.952C159.332 625.963 154.992 625.354 154.167 620.528C153.445 616.305 156.402 612.878 161.441 612.017C166.977 611.071 170.911 613.576 171.959 617.998L168.765 618.544C167.919 615.731 165.291 614.244 161.92 614.82C158.691 615.372 156.769 617.161 157.224 619.823C157.733 622.803 160.853 622.891 164.688 622.893C168.848 622.876 173.231 623.515 174.055 628.341C174.789 632.635 171.685 636.27 166.469 637.161C160.401 638.198 156.264 635.362 155.25 630.496ZM179.187 634.769L174.942 609.929L178.029 609.401L182.274 634.241L179.187 634.769ZM197.876 631.794C190.992 632.97 185.328 628.679 184.043 621.156C182.757 613.633 186.532 607.729 193.736 606.498C199.236 605.558 203.934 608.042 205.659 613.006L202.358 613.57C200.918 610.274 197.911 608.706 194.15 609.349C188.934 610.24 186.218 614.868 187.201 620.616C188.183 626.365 192.281 629.828 197.426 628.949C202.004 628.166 204.837 624.87 204.085 620.47L203.94 619.618L196.488 620.892L196.003 618.053L206.471 616.264L208.769 629.713L206.108 630.168L205.276 626.585C204.45 628.588 202.134 631.066 197.876 631.794ZM216.614 628.372L213.598 628.888L209.353 604.048L212.192 603.563L228.809 620.445L225.534 601.283L228.55 600.767L232.796 625.607L229.957 626.092L213.339 609.21L216.614 628.372ZM237.613 624.784L233.368 599.944L236.455 599.416L240.7 624.256L237.613 624.784ZM248.53 622.918L245.514 623.433L241.269 598.594L244.108 598.108L260.725 614.99L257.45 595.828L260.467 595.313L264.712 620.153L261.873 620.638L245.256 603.756L248.53 622.918ZM280.318 617.705C273.433 618.881 267.77 614.59 266.484 607.067C265.198 599.544 268.974 593.64 276.177 592.409C281.678 591.469 286.375 593.953 288.1 598.917L284.8 599.481C283.36 596.185 280.353 594.617 276.591 595.26C271.375 596.151 268.66 600.779 269.642 606.527C270.625 612.276 274.723 615.739 279.868 614.86C284.446 614.077 287.279 610.781 286.527 606.381L286.381 605.529L278.929 606.803L278.444 603.964L288.912 602.175L291.211 615.624L288.549 616.079L287.718 612.496C286.892 614.499 284.576 616.977 280.318 617.705Z" fill="#929292"/>
<path d="M697.723 244.032L697.287 217.787L700.447 218.651L700.557 240.627L712.114 221.842L715.17 222.678L715.35 244.672L726.664 225.821L729.789 226.676L716.023 249.036L712.412 248.049L712.126 227.257L701.334 245.019L697.723 244.032ZM726.051 251.779L732.698 227.471L748.185 231.707L747.426 234.485L734.959 231.076L732.832 238.854L743.215 241.693L742.455 244.471L732.073 241.632L729.831 249.827L742.749 253.36L741.989 256.138L726.051 251.779ZM745.38 257.065L752.027 232.758L760.639 235.113C765.813 236.528 768.012 239.816 766.938 243.74C766.179 246.518 764.185 247.802 761.675 247.974C764.112 249.162 765.913 251.447 764.954 254.954C763.776 259.26 759.999 261.063 754.235 259.487L745.38 257.065ZM760.028 237.894L754.298 236.327L752.161 244.14L757.891 245.707C761.016 246.562 763.186 245.588 763.86 243.122C764.525 240.691 763.188 238.758 760.028 237.894ZM757.255 248.444L751.421 246.849L749.151 255.148L754.985 256.743C758.735 257.769 761.142 256.748 761.826 254.247C762.576 251.504 760.866 249.432 757.255 248.444ZM783.712 267.548L775.934 265.421L782.581 241.113L790.36 243.241C797.964 245.32 801.253 251.445 799.259 258.737C797.274 265.995 791.317 269.628 783.712 267.548ZM784.843 244.718L779.714 263.469L784.472 264.77C790.375 266.385 794.62 263.552 796.168 257.892C797.726 252.197 795.503 247.633 789.6 246.019L784.843 244.718ZM799.739 271.931L806.387 247.624L821.874 251.859L821.114 254.637L808.648 251.228L806.521 259.006L816.903 261.846L816.144 264.624L805.761 261.784L803.52 269.979L816.437 273.512L815.678 276.29L799.739 271.931ZM825.635 279.013L823.532 252.313L826.726 253.186L828.488 275.949L841.554 257.241L844.679 258.096L829.281 280.01L825.635 279.013ZM840.703 283.134L847.351 258.827L862.838 263.062L862.079 265.84L849.612 262.431L847.485 270.209L857.868 273.049L857.108 275.827L846.725 272.987L844.484 281.183L857.402 284.715L856.642 287.493L840.703 283.134ZM874.131 292.276L860.033 288.421L866.68 264.113L869.701 264.939L863.814 286.469L874.891 289.498L874.131 292.276ZM900.74 286.491C898.784 293.644 892.602 297.552 885.761 295.681C878.921 293.81 875.588 287.3 877.544 280.147C879.5 272.994 885.682 269.086 892.523 270.957C899.364 272.828 902.697 279.337 900.74 286.491ZM880.635 280.992C879.106 286.583 881.451 291.516 886.521 292.903C891.591 294.289 896.121 291.236 897.65 285.645C899.179 280.055 896.833 275.121 891.763 273.735C886.693 272.348 882.164 275.401 880.635 280.992ZM901.235 299.689L907.882 275.381L917.223 277.936C922.085 279.265 924.482 283.056 923.238 287.605C921.994 292.154 917.992 294.232 913.13 292.902L906.81 291.174L904.256 300.515L901.235 299.689ZM916.22 280.647L910.144 278.985L907.57 288.396L913.612 290.048C916.807 290.922 919.359 289.642 920.147 286.76C920.935 283.877 919.415 281.521 916.22 280.647ZM921.852 305.327L928.5 281.02L932.32 282.064L935.414 304.595L949.439 286.746L953.189 287.772L946.542 312.079L943.59 311.272L948.832 292.104L935.534 309.069L932.86 308.338L930.046 286.966L924.804 306.134L921.852 305.327ZM951.253 313.368L957.901 289.06L973.388 293.296L972.628 296.074L960.162 292.665L958.035 300.443L968.418 303.282L967.658 306.06L957.275 303.221L955.034 311.416L967.952 314.949L967.192 317.727L951.253 313.368ZM973.534 319.461L970.582 318.654L977.23 294.347L980.008 295.106L987.936 317.428L993.065 298.677L996.016 299.484L989.369 323.792L986.591 323.032L978.662 300.71L973.534 319.461ZM998.304 303.096L999.064 300.318L1017.85 305.455L1017.09 308.233L1009.21 306.078L1003.32 327.607L1000.3 326.781L1006.19 305.251L998.304 303.096Z" fill="#929292"/>
<path d="M1165.31 368.048L1163.21 341.347L1166.4 342.221L1168.16 364.984L1181.23 346.276L1184.36 347.13L1168.96 369.045L1165.31 368.048ZM1180.38 372.169L1187.03 347.861L1190.05 348.687L1183.4 372.995L1180.38 372.169ZM1195.89 376.41L1188.11 374.283L1194.76 349.976L1202.54 352.103C1210.14 354.183 1213.43 360.307 1211.44 367.6C1209.45 374.857 1203.49 378.49 1195.89 376.41ZM1197.02 353.58L1191.89 372.331L1196.65 373.632C1202.55 375.247 1206.8 372.414 1208.35 366.754C1209.9 361.059 1207.68 356.495 1201.78 354.881L1197.02 353.58ZM1211.92 380.794L1218.56 356.486L1234.05 360.722L1233.29 363.5L1220.83 360.09L1218.7 367.869L1229.08 370.708L1228.32 373.486L1217.94 370.647L1215.7 378.842L1228.62 382.375L1227.86 385.152L1211.92 380.794ZM1256.05 379.8C1254.09 386.954 1247.91 390.861 1241.07 388.99C1234.23 387.12 1230.9 380.61 1232.85 373.457C1234.81 366.303 1240.99 362.396 1247.83 364.266C1254.67 366.137 1258.01 372.647 1256.05 379.8ZM1235.94 374.302C1234.41 379.892 1236.76 384.826 1241.83 386.213C1246.9 387.599 1251.43 384.546 1252.96 378.955C1254.49 373.364 1252.14 368.431 1247.07 367.044C1242 365.658 1237.47 368.711 1235.94 374.302ZM1265.63 395.484L1272.28 371.176L1287.77 375.412L1287.01 378.19L1274.54 374.78L1272.41 382.559L1282.8 385.398L1282.04 388.176L1271.65 385.337L1269.41 393.532L1282.33 397.065L1281.57 399.843L1265.63 395.484ZM1292.74 402.897L1284.96 400.77L1291.61 376.462L1299.39 378.59C1306.99 380.669 1310.28 386.794 1308.29 394.086C1306.3 401.344 1300.34 404.977 1292.74 402.897ZM1293.87 380.067L1288.74 398.818L1293.5 400.119C1299.4 401.734 1303.65 398.901 1305.2 393.241C1306.75 387.546 1304.53 382.982 1298.63 381.368L1293.87 380.067ZM1308.77 407.28L1315.41 382.973L1318.44 383.799L1311.79 408.106L1308.77 407.28ZM1320.72 387.41L1321.48 384.632L1340.27 389.769L1339.51 392.547L1331.62 390.391L1325.74 411.921L1322.71 411.095L1328.6 389.565L1320.72 387.41ZM1336.68 414.913L1343.32 390.605L1346.34 391.432L1339.7 415.739L1336.68 414.913ZM1347.36 417.835L1344.41 417.027L1351.05 392.72L1353.83 393.48L1361.76 415.802L1366.89 397.05L1369.84 397.858L1363.19 422.165L1360.42 421.405L1352.49 399.083L1347.36 417.835ZM1378.37 426.54C1371.64 424.698 1368.32 418.415 1370.33 411.054C1372.34 403.692 1378.26 399.936 1385.31 401.863C1390.69 403.335 1393.9 407.572 1393.36 412.8L1390.13 411.917C1390.22 408.321 1388.16 405.629 1384.48 404.622C1379.37 403.226 1374.96 406.273 1373.42 411.899C1371.88 417.524 1374.13 422.395 1379.17 423.772C1383.65 424.997 1387.61 423.206 1388.78 418.9L1389.01 418.067L1381.72 416.072L1382.48 413.294L1392.72 416.096L1389.12 429.257L1386.52 428.544L1387.28 424.945C1385.68 426.413 1382.54 427.68 1378.37 426.54Z" fill="#929292"/>
<path d="M456.418 166.604L460.227 152.679L463.248 153.505L459.392 167.603C458.015 172.639 459.317 175.794 463.519 176.943C467.79 178.111 470.516 176.057 471.893 171.022L475.749 156.924L478.77 157.75L474.962 171.675C473.062 178.62 468.836 181.383 462.759 179.721C456.682 178.059 454.519 173.549 456.418 166.604ZM476.71 183.312L483.357 159.005L486.378 159.831L479.731 184.138L476.71 183.312ZM501.431 163.425L485.414 185.692L482.427 184.876L498.445 162.608L501.431 163.425ZM500.062 178.539L503.87 164.615L506.891 165.441L503.035 179.539C501.658 184.574 502.96 187.729 507.162 188.878C511.433 190.047 514.159 187.993 515.536 182.958L519.392 168.86L522.413 169.686L518.605 183.61C516.706 190.555 512.479 193.318 506.402 191.656C500.325 189.995 498.163 185.484 500.062 178.539ZM518.513 194.744L530.117 184.519L525.681 170.58L529.223 171.548L532.726 182.621L541.377 174.872L544.849 175.822L533.994 185.356L538.722 200.272L535.146 199.293L531.331 187.315L522.02 195.704L518.513 194.744Z" fill="#929292"/>
</g>
</g>
</svg>
