<svg width="1329" height="810" viewBox="0 0 1329 810" fill="none" xmlns="http://www.w3.org/2000/svg">
<g opacity="0.14" filter="url(#filter0_f_48_147)">
<path d="M29.78 119.256L4.81998 29.6562L24.788 29.5282L41.3 95.0642L58.836 29.6562H76.116L93.14 95.0642L110.036 29.6562H129.492L104.532 119.256H82.516L66.9 59.7362L51.796 119.256H29.78ZM137.738 119.256V29.6562H197.898V46.1682H156.938V66.2642H190.218V82.0082H156.938V102.744H199.306V119.256H137.738ZM210.863 119.256V29.6562H244.911C265.647 29.6562 277.679 38.3602 277.679 53.3362C277.679 64.6002 271.023 71.0002 260.783 73.1762C272.687 74.7122 280.879 80.9842 280.879 93.7842C280.879 109.4 268.591 119.256 246.575 119.256H210.863ZM245.423 44.7602H230.063V66.5202H245.423C253.615 66.5202 258.479 62.2962 258.479 55.6402C258.479 48.9842 253.743 44.7602 245.423 44.7602ZM246.703 81.3682H230.063V104.024H246.703C255.919 104.024 261.167 99.8002 261.167 92.8882C261.167 85.5922 255.791 81.3682 246.703 81.3682ZM356.753 119.256H324.113V29.6562H356.753C384.657 29.6562 403.217 47.9602 403.217 74.3282C403.217 100.568 384.657 119.256 356.753 119.256ZM343.313 45.6562V103.256H356.753C373.905 103.256 383.505 91.3522 383.505 74.3282C383.505 57.1762 373.905 45.6562 356.753 45.6562H343.313ZM414.863 119.256V29.6562H475.023V46.1682H434.063V66.2642H467.343V82.0082H434.063V102.744H476.431V119.256H414.863ZM509.772 119.256L479.308 29.6562H499.66L521.164 95.9602L543.18 29.6562H563.02L532.684 119.256H509.772ZM570.738 119.256V29.6562H630.898V46.1682H589.938V66.2642H623.218V82.0082H589.938V102.744H632.306V119.256H570.738ZM698.647 119.256H643.863V29.6562H663.063V102.744H698.647V119.256ZM787.736 74.4562C787.736 100.568 769.688 120.024 743.32 120.024C716.952 120.024 698.904 100.568 698.904 74.4562C698.904 48.3442 716.952 28.8882 743.32 28.8882C769.688 28.8882 787.736 48.3442 787.736 74.4562ZM718.488 74.4562C718.488 91.3522 728.216 103.768 743.32 103.768C758.296 103.768 768.024 91.3522 768.024 74.4562C768.024 57.5602 758.296 45.1442 743.32 45.1442C728.216 45.1442 718.488 57.5602 718.488 74.4562ZM799.363 119.256V29.6562H835.843C855.299 29.6562 868.227 41.3042 868.227 59.4802C868.227 77.5282 855.299 89.1762 835.843 89.1762H818.563V119.256H799.363ZM834.051 45.6562H818.563V73.1762H834.051C843.011 73.1762 848.771 67.9282 848.771 59.4802C848.771 50.9042 843.011 45.6562 834.051 45.6562ZM878.988 119.256V29.6562H904.204L929.036 95.4482L953.1 29.6562H977.804V119.256H959.5V59.2242L936.204 119.256H920.588L897.292 59.2242V119.256H878.988ZM993.113 119.256V29.6562H1053.27V46.1682H1012.31V66.2642H1045.59V82.0082H1012.31V102.744H1054.68V119.256H993.113ZM1085.05 119.256H1066.24V29.6562H1083.65L1121.66 86.1042V29.6562H1140.61V119.256H1123.07L1085.05 62.8082V119.256ZM1150.74 46.1682V29.6562H1221.78V46.1682H1195.8V119.256H1176.6V46.1682H1150.74Z" fill="#EC5154"/>
</g>
<g opacity="0.26" filter="url(#filter1_i_48_147)">
<path d="M336.723 475.946L306.259 386.346H326.611L348.115 452.65L370.131 386.346H389.971L359.635 475.946H336.723ZM397.689 475.946V386.346H416.889V475.946H397.689ZM464.704 475.946H432.064V386.346H464.704C492.608 386.346 511.168 404.65 511.168 431.018C511.168 457.258 492.608 475.946 464.704 475.946ZM451.264 402.346V459.946H464.704C481.856 459.946 491.456 448.042 491.456 431.018C491.456 413.866 481.856 402.346 464.704 402.346H451.264ZM522.814 475.946V386.346H582.974V402.858H542.014V422.954H575.294V438.698H542.014V459.434H584.382V475.946H522.814ZM678.937 431.146C678.937 457.258 660.889 476.714 634.521 476.714C608.153 476.714 590.105 457.258 590.105 431.146C590.105 405.034 608.153 385.578 634.521 385.578C660.889 385.578 678.937 405.034 678.937 431.146ZM609.689 431.146C609.689 448.042 619.417 460.458 634.521 460.458C649.497 460.458 659.225 448.042 659.225 431.146C659.225 414.25 649.497 401.834 634.521 401.834C619.417 401.834 609.689 414.25 609.689 431.146ZM722.314 475.946V386.346H782.474V402.858H741.514V422.954H774.794V438.698H741.514V459.434H783.882V475.946H722.314ZM828.079 475.946H795.439V386.346H828.079C855.983 386.346 874.543 404.65 874.543 431.018C874.543 457.258 855.983 475.946 828.079 475.946ZM814.639 402.346V459.946H828.079C845.231 459.946 854.831 448.042 854.831 431.018C854.831 413.866 845.231 402.346 828.079 402.346H814.639ZM886.189 475.946V386.346H905.389V475.946H886.189ZM915.444 402.858V386.346H986.484V402.858H960.5V475.946H941.3V402.858H915.444ZM996.689 475.946V386.346H1015.89V475.946H996.689ZM1049.88 475.946H1031.06V386.346H1048.47L1086.49 442.794V386.346H1105.43V475.946H1087.9L1049.88 419.498V475.946ZM1159.73 476.714C1134.13 476.714 1117.11 458.666 1117.11 431.146C1117.11 403.626 1134 385.578 1161.52 385.578C1183.15 385.578 1198.39 398.89 1200.69 418.218H1181.49C1179.19 408.362 1172.02 401.834 1161.01 401.834C1146.03 401.834 1136.69 413.866 1136.69 431.146C1136.69 448.426 1145.65 460.458 1161.01 460.458C1171.25 460.458 1181.62 455.082 1183.41 442.538V441.386H1161.14V426.154H1201.2V475.946H1187.76L1185.84 465.194C1181.11 471.466 1172.4 476.714 1159.73 476.714Z" fill="#C00003"/>
</g>
<path opacity="0.32" d="M317.707 668.213H306.547L324.979 617.813H337.939L356.227 668.213H344.635L340.747 657.197H321.595L317.707 668.213ZM331.099 629.333L324.475 648.485H337.795L331.099 629.333ZM360.852 668.213V617.813H381.372C392.316 617.813 399.588 624.365 399.588 634.589C399.588 644.741 392.316 651.293 381.372 651.293H371.652V668.213H360.852ZM380.364 626.813H371.652V642.293H380.364C385.404 642.293 388.644 639.341 388.644 634.589C388.644 629.765 385.404 626.813 380.364 626.813ZM405.642 668.213V617.813H426.162C437.106 617.813 444.378 624.365 444.378 634.589C444.378 644.741 437.106 651.293 426.162 651.293H416.442V668.213H405.642ZM425.154 626.813H416.442V642.293H425.154C430.194 642.293 433.434 639.341 433.434 634.589C433.434 629.765 430.194 626.813 425.154 626.813ZM481.247 668.213H450.431V617.813H461.231V658.925H481.247V668.213ZM486.993 668.213V617.813H497.793V668.213H486.993ZM528.361 668.645C513.385 668.645 504.313 658.493 504.313 643.013C504.313 627.533 513.745 617.381 529.009 617.381C540.961 617.381 549.385 624.869 550.681 635.813H539.737C538.441 630.197 534.409 626.525 528.433 626.525C520.225 626.525 515.329 633.293 515.329 643.013C515.329 652.661 520.153 659.501 528.289 659.501C534.409 659.501 538.441 655.829 539.737 650.213H550.609C549.385 661.157 540.673 668.645 528.361 668.645ZM562.043 668.213H550.883L569.315 617.813H582.275L600.563 668.213H588.971L585.083 657.197H565.931L562.043 668.213ZM575.435 629.333L568.811 648.485H582.131L575.435 629.333ZM595.277 627.101V617.813H635.237V627.101H620.621V668.213H609.821V627.101H595.277ZM640.977 668.213V617.813H651.777V668.213H640.977ZM708.265 643.013C708.265 657.701 698.113 668.645 683.281 668.645C668.449 668.645 658.297 657.701 658.297 643.013C658.297 628.325 668.449 617.381 683.281 617.381C698.113 617.381 708.265 628.325 708.265 643.013ZM669.313 643.013C669.313 652.517 674.785 659.501 683.281 659.501C691.705 659.501 697.177 652.517 697.177 643.013C697.177 633.509 691.705 626.525 683.281 626.525C674.785 626.525 669.313 633.509 669.313 643.013ZM725.39 668.213H714.806V617.813H724.598L745.982 649.565V617.813H756.638V668.213H746.774L725.39 636.461V668.213Z" fill="#C00003"/>
<path opacity="0.68" d="M478.078 558.21C464.766 558.21 456.702 549.186 456.702 535.425C456.702 521.666 465.086 512.641 478.654 512.641C489.278 512.641 496.766 519.297 497.918 529.025H488.19C487.038 524.034 483.454 520.769 478.142 520.769C470.846 520.769 466.494 526.785 466.494 535.425C466.494 544.002 470.782 550.082 478.014 550.082C483.454 550.082 487.038 546.818 488.19 541.826H497.854C496.766 551.554 489.022 558.21 478.078 558.21ZM503.307 557.826V513.025H512.907V557.826H503.307ZM529.902 557.826H520.494V513.025H529.198L548.206 541.25V513.025H557.678V557.826H548.91L529.902 529.601V557.826ZM565.307 557.826V513.025H595.387V521.281H574.907V531.329H591.547V539.201H574.907V549.569H596.091V557.826H565.307ZM601.869 557.826V513.025H614.477L626.893 545.922L638.925 513.025H651.277V557.826H642.125V527.809L630.477 557.826H622.669L611.021 527.809V557.826H601.869ZM665.268 557.826H655.348L671.732 513.025H683.252L699.508 557.826H689.204L685.748 548.033H668.724L665.268 557.826ZM677.172 523.265L671.284 540.289H683.124L677.172 523.265ZM694.809 521.281V513.025H730.329V521.281H717.337V557.826H707.737V521.281H694.809ZM775.118 535.425C775.118 548.481 766.094 558.21 752.91 558.21C739.726 558.21 730.702 548.481 730.702 535.425C730.702 522.369 739.726 512.641 752.91 512.641C766.094 512.641 775.118 522.369 775.118 535.425ZM740.494 535.425C740.494 543.873 745.358 550.082 752.91 550.082C760.398 550.082 765.262 543.873 765.262 535.425C765.262 526.977 760.398 520.769 752.91 520.769C745.358 520.769 740.494 526.977 740.494 535.425ZM800.452 558.21C787.652 558.21 779.14 549.186 779.14 535.425C779.14 521.666 787.588 512.641 801.348 512.641C812.164 512.641 819.78 519.297 820.932 528.961H811.332C810.18 524.034 806.596 520.769 801.092 520.769C793.604 520.769 788.932 526.785 788.932 535.425C788.932 544.066 793.412 550.082 801.092 550.082C806.212 550.082 811.396 547.394 812.292 541.122V540.545H801.156V532.929H821.188V557.826H814.468L813.508 552.45C811.14 555.586 806.788 558.21 800.452 558.21ZM828.869 557.826V513.025H847.109C856.965 513.025 863.557 518.849 863.557 527.938C863.557 533.698 860.549 538.306 855.877 540.545L864.709 557.826H854.085L846.533 542.785H838.469V557.826H828.869ZM846.341 521.025H838.469V534.785H846.341C850.885 534.785 853.765 532.097 853.765 527.938C853.765 523.713 850.885 521.025 846.341 521.025ZM875.705 557.826H865.785L882.169 513.025H893.689L909.945 557.826H899.641L896.185 548.033H879.161L875.705 557.826ZM887.609 523.265L881.721 540.289H893.561L887.609 523.265ZM914.057 557.826V513.025H932.297C942.025 513.025 948.489 518.849 948.489 527.938C948.489 536.962 942.025 542.785 932.297 542.785H923.657V557.826H914.057ZM931.401 521.025H923.657V534.785H931.401C935.881 534.785 938.761 532.161 938.761 527.938C938.761 523.649 935.881 521.025 931.401 521.025ZM953.869 557.826V513.025H963.469V531.009H981.261V513.025H990.861V557.826H981.261V539.33H963.469V557.826H953.869ZM1011.1 541.185L994.654 513.025H1005.85L1015.9 531.393L1026.46 513.025H1037.15L1020.7 541.185V557.826H1011.1V541.185Z" fill="#C00003"/>
<g filter="url(#filter2_i_48_147)">
<path d="M82.8987 279.584V168.144H124.899V281.824C124.899 312.904 136.379 329.704 163.259 329.704C190.419 329.704 201.899 312.904 201.899 281.824V168.144H243.899V279.584C243.899 335.304 216.179 365.824 163.259 365.824C110.619 365.824 82.8987 335.304 82.8987 279.584ZM275.978 364.144V168.144H317.978V364.144H275.978ZM448.614 164.224L374.134 364.144H336.334L410.814 164.224H448.614ZM465.438 279.584V168.144H507.438V281.824C507.438 312.904 518.918 329.704 545.798 329.704C572.958 329.704 584.438 312.904 584.438 281.824V168.144H626.438V279.584C626.438 335.304 598.718 365.824 545.798 365.824C493.158 365.824 465.438 335.304 465.438 279.584ZM644.517 364.144L708.357 263.904L647.597 168.144H697.437L735.517 230.304L774.997 168.144H822.037L761.277 263.344L825.117 364.144H774.997L733.837 296.944L691.277 364.144H644.517Z" fill="#9B191B"/>
</g>
<g filter="url(#filter3_f_48_147)">
<path d="M80.076 735.946H36.676L108.356 539.946H158.756L229.876 735.946H184.796L169.676 693.106H95.196L80.076 735.946ZM132.156 584.746L106.396 659.226H158.196L132.156 584.746ZM247.864 735.946V539.946H289.864V735.946H247.864Z" fill="#2B0001"/>
</g>
<g filter="url(#filter4_f_48_147)">
<path d="M821.098 673.388C801.898 673.388 789.13 659.852 789.13 639.212C789.13 618.572 801.802 605.036 822.442 605.036C838.666 605.036 850.09 615.02 851.818 629.516H837.418C835.69 622.124 830.314 617.228 822.058 617.228C810.826 617.228 803.818 626.252 803.818 639.212C803.818 652.172 810.538 661.196 822.058 661.196C829.738 661.196 837.514 657.164 838.858 647.756V646.892H822.154V635.468H852.202V672.812H842.122L840.682 664.748C837.13 669.452 830.602 673.388 821.098 673.388ZM863.724 672.812V605.612H891.084C905.868 605.612 915.756 614.348 915.756 627.98C915.756 636.62 911.244 643.532 904.236 646.892L917.484 672.812H901.548L890.22 650.252H878.124V672.812H863.724ZM889.932 617.612H878.124V638.252H889.932C896.748 638.252 901.068 634.22 901.068 627.98C901.068 621.644 896.748 617.612 889.932 617.612ZM933.978 672.812H919.098L943.674 605.612H960.954L985.338 672.812H969.882L964.698 658.124H939.162L933.978 672.812ZM951.834 620.972L943.002 646.508H960.762L951.834 620.972ZM991.505 672.812V605.612H1018.87C1033.46 605.612 1043.15 614.348 1043.15 627.98C1043.15 641.516 1033.46 650.252 1018.87 650.252H1005.91V672.812H991.505ZM1017.52 617.612H1005.91V638.252H1017.52C1024.24 638.252 1028.56 634.316 1028.56 627.98C1028.56 621.548 1024.24 617.612 1017.52 617.612ZM1051.22 672.812V605.612H1065.62V632.588H1092.31V605.612H1106.71V672.812H1092.31V645.068H1065.62V672.812H1051.22ZM1118.16 672.812V605.612H1132.56V672.812H1118.16ZM1173.32 673.388C1153.35 673.388 1141.25 659.852 1141.25 639.212C1141.25 618.572 1153.83 605.036 1174.18 605.036C1190.12 605.036 1201.35 615.02 1203.08 629.612H1188.49C1186.76 622.124 1181.38 617.228 1173.41 617.228C1162.47 617.228 1155.94 626.252 1155.94 639.212C1155.94 652.076 1162.37 661.196 1173.22 661.196C1181.38 661.196 1186.76 656.3 1188.49 648.812H1202.98C1201.35 663.404 1189.73 673.388 1173.32 673.388Z" fill="#FF0004"/>
</g>
<g opacity="0.57">
<path d="M895.199 326.933H862.559V237.333H895.199C923.103 237.333 941.663 255.637 941.663 282.005C941.663 308.245 923.103 326.933 895.199 326.933ZM881.759 253.333V310.933H895.199C912.351 310.933 921.951 299.029 921.951 282.005C921.951 264.853 912.351 253.333 895.199 253.333H881.759ZM953.309 326.933V237.333H1013.47V253.845H972.509V273.941H1005.79V289.685H972.509V310.421H1014.88V326.933H953.309ZM1022.85 297.493L1041.67 297.749C1042.31 306.453 1049.22 312.469 1060.23 312.469C1069.06 312.469 1075.59 308.629 1075.59 301.589C1075.59 294.037 1068.29 292.501 1053.31 289.557C1038.21 286.741 1024.9 281.877 1024.9 263.701C1024.9 247.829 1038.08 236.565 1058.31 236.565C1079.43 236.565 1092.87 247.573 1093.12 264.725H1074.31C1073.41 257.173 1067.65 251.925 1058.31 251.925C1050.11 251.925 1044.23 255.381 1044.23 262.293C1044.23 269.589 1051.27 271.125 1066.11 273.941C1081.47 276.757 1095.04 281.365 1094.91 299.413C1094.79 316.181 1080.96 327.701 1059.97 327.701C1037.19 327.701 1022.98 315.669 1022.85 297.493ZM1106.43 326.933V237.333H1125.63V326.933H1106.43ZM1179.85 327.701C1154.25 327.701 1137.22 309.653 1137.22 282.133C1137.22 254.613 1154.12 236.565 1181.64 236.565C1203.27 236.565 1218.5 249.877 1220.81 269.205H1201.61C1199.3 259.349 1192.14 252.821 1181.13 252.821C1166.15 252.821 1156.81 264.853 1156.81 282.133C1156.81 299.413 1165.77 311.445 1181.13 311.445C1191.37 311.445 1201.74 306.069 1203.53 293.525V292.373H1181.26V277.141H1221.32V326.933H1207.88L1205.96 316.181C1201.22 322.453 1192.52 327.701 1179.85 327.701ZM1255.5 326.933H1236.68V237.333H1254.09L1292.11 293.781V237.333H1311.05V326.933H1293.52L1255.5 270.485V326.933Z" fill="#4E0001"/>
<path d="M888.111 231.933H860.719V187.133H870.319V223.677H888.111V231.933ZM932.655 209.533C932.655 222.589 923.631 232.317 910.447 232.317C897.263 232.317 888.239 222.589 888.239 209.533C888.239 196.477 897.263 186.749 910.447 186.749C923.631 186.749 932.655 196.477 932.655 209.533ZM898.031 209.533C898.031 217.981 902.895 224.189 910.447 224.189C917.935 224.189 922.799 217.981 922.799 209.533C922.799 201.085 917.935 194.877 910.447 194.877C902.895 194.877 898.031 201.085 898.031 209.533ZM957.989 232.317C945.189 232.317 936.677 223.293 936.677 209.533C936.677 195.773 945.125 186.749 958.885 186.749C969.701 186.749 977.317 193.405 978.469 203.069H968.869C967.717 198.141 964.133 194.877 958.629 194.877C951.141 194.877 946.469 200.893 946.469 209.533C946.469 218.173 950.949 224.189 958.629 224.189C963.749 224.189 968.933 221.501 969.829 215.229V214.653H958.693V207.037H978.725V231.933H972.005L971.045 226.557C968.677 229.693 964.325 232.317 957.989 232.317ZM1029.03 209.533C1029.03 222.589 1020.01 232.317 1006.82 232.317C993.638 232.317 984.614 222.589 984.614 209.533C984.614 196.477 993.638 186.749 1006.82 186.749C1020.01 186.749 1029.03 196.477 1029.03 209.533ZM994.406 209.533C994.406 217.981 999.27 224.189 1006.82 224.189C1014.31 224.189 1019.17 217.981 1019.17 209.533C1019.17 201.085 1014.31 194.877 1006.82 194.877C999.27 194.877 994.406 201.085 994.406 209.533Z" fill="#4E0001"/>
</g>
<g opacity="0.57">
<g filter="url(#filter5_f_48_147)">
<path d="M50.676 437.506H38.436V403.906H50.676C61.14 403.906 68.1 410.77 68.1 420.658C68.1 430.498 61.14 437.506 50.676 437.506ZM45.636 409.906V431.506H50.676C57.108 431.506 60.708 427.042 60.708 420.658C60.708 414.226 57.108 409.906 50.676 409.906H45.636ZM72.4672 437.506V403.906H95.0272V410.098H79.6672V417.634H92.1472V423.538H79.6672V431.314H95.5552V437.506H72.4672ZM98.5451 426.466L105.601 426.562C105.841 429.826 108.433 432.082 112.561 432.082C115.873 432.082 118.321 430.642 118.321 428.002C118.321 425.17 115.585 424.594 109.969 423.49C104.305 422.434 99.3131 420.61 99.3131 413.794C99.3131 407.842 104.257 403.618 111.841 403.618C119.761 403.618 124.801 407.746 124.897 414.178H117.841C117.505 411.346 115.345 409.378 111.841 409.378C108.769 409.378 106.561 410.674 106.561 413.266C106.561 416.002 109.201 416.578 114.769 417.634C120.529 418.69 125.617 420.418 125.569 427.186C125.521 433.474 120.337 437.794 112.465 437.794C103.921 437.794 98.5931 433.282 98.5451 426.466ZM129.889 437.506V403.906H137.089V437.506H129.889ZM157.42 437.794C147.82 437.794 141.436 431.026 141.436 420.706C141.436 410.386 147.772 403.618 158.092 403.618C166.204 403.618 171.916 408.61 172.78 415.858H165.58C164.716 412.162 162.028 409.714 157.9 409.714C152.284 409.714 148.78 414.226 148.78 420.706C148.78 427.186 152.14 431.698 157.9 431.698C161.74 431.698 165.628 429.682 166.3 424.978V424.546H157.948V418.834H172.972V437.506H167.932L167.212 433.474C165.436 435.826 162.172 437.794 157.42 437.794ZM185.789 437.506H178.733V403.906H185.261L199.517 425.074V403.906H206.621V437.506H200.045L185.789 416.338V437.506ZM212.342 437.506V403.906H219.542V437.506H212.342ZM232.289 437.506H225.233V403.906H231.761L246.017 425.074V403.906H253.121V437.506H246.545L232.289 416.338V437.506ZM273.482 437.794C263.882 437.794 257.498 431.026 257.498 420.706C257.498 410.386 263.834 403.618 274.154 403.618C282.266 403.618 287.978 408.61 288.842 415.858H281.642C280.778 412.162 278.09 409.714 273.962 409.714C268.346 409.714 264.842 414.226 264.842 420.706C264.842 427.186 268.202 431.698 273.962 431.698C277.802 431.698 281.69 429.682 282.362 424.978V424.546H274.01V418.834H289.034V437.506H283.994L283.274 433.474C281.498 435.826 278.234 437.794 273.482 437.794Z" fill="#EC5154"/>
</g>
<path d="M1051.32 735.946H1039.08V702.346H1051.32C1061.79 702.346 1068.75 709.21 1068.75 719.098C1068.75 728.938 1061.79 735.946 1051.32 735.946ZM1046.28 708.346V729.946H1051.32C1057.75 729.946 1061.35 725.482 1061.35 719.098C1061.35 712.666 1057.75 708.346 1051.32 708.346H1046.28ZM1073.11 735.946V702.346H1095.67V708.538H1080.31V716.074H1092.79V721.978H1080.31V729.754H1096.2V735.946H1073.11ZM1099.19 724.906L1106.25 725.002C1106.49 728.266 1109.08 730.522 1113.21 730.522C1116.52 730.522 1118.97 729.082 1118.97 726.442C1118.97 723.61 1116.23 723.034 1110.62 721.93C1104.95 720.874 1099.96 719.05 1099.96 712.234C1099.96 706.282 1104.9 702.058 1112.49 702.058C1120.41 702.058 1125.45 706.186 1125.54 712.618H1118.49C1118.15 709.786 1115.99 707.818 1112.49 707.818C1109.42 707.818 1107.21 709.114 1107.21 711.706C1107.21 714.442 1109.85 715.018 1115.42 716.074C1121.18 717.13 1126.26 718.858 1126.22 725.626C1126.17 731.914 1120.98 736.234 1113.11 736.234C1104.57 736.234 1099.24 731.722 1099.19 724.906ZM1130.54 735.946V702.346H1137.74V735.946H1130.54ZM1158.07 736.234C1148.47 736.234 1142.08 729.466 1142.08 719.146C1142.08 708.826 1148.42 702.058 1158.74 702.058C1166.85 702.058 1172.56 707.05 1173.43 714.298H1166.23C1165.36 710.602 1162.67 708.154 1158.55 708.154C1152.93 708.154 1149.43 712.666 1149.43 719.146C1149.43 725.626 1152.79 730.138 1158.55 730.138C1162.39 730.138 1166.27 728.122 1166.95 723.418V722.986H1158.59V717.274H1173.62V735.946H1168.58L1167.86 731.914C1166.08 734.266 1162.82 736.234 1158.07 736.234ZM1186.43 735.946H1179.38V702.346H1185.91L1200.16 723.514V702.346H1207.27V735.946H1200.69L1186.43 714.778V735.946Z" fill="#612E2F"/>
</g>
<g opacity="0.57" filter="url(#filter6_i_48_147)">
<path d="M1235 390.63L1234.96 371.25L1288.16 371.362L1288.2 390.742C1288.23 407.31 1277.39 418.307 1261.73 418.274C1246.15 418.242 1235.03 407.198 1235 390.63ZM1278.68 382.742L1244.48 382.67L1244.5 390.65C1244.52 400.834 1251.6 406.549 1261.71 406.57C1271.89 406.592 1278.72 400.906 1278.7 390.722L1278.68 382.742ZM1235.08 430.356L1235.06 418.576L1288.3 438.144L1288.33 451.824L1235.17 471.016L1235.14 458.78L1246.76 454.701L1246.72 434.485L1235.08 430.356ZM1276.15 444.578L1255.92 437.544L1255.95 451.604L1276.15 444.578ZM1235.18 475.899L1288.38 476.01L1288.4 487.41L1267.04 487.365L1267.09 508.493L1288.44 508.538L1288.47 519.938L1235.27 519.826L1235.24 508.427L1257.21 508.473L1257.16 487.345L1235.2 487.299L1235.18 475.899ZM1235.29 528.891L1288.49 529.002L1288.53 549.218C1288.55 561.53 1283.4 568.663 1274.51 568.645C1267.82 568.631 1264.01 564.671 1262.71 558.588C1261.81 565.654 1258.1 570.51 1250.5 570.494C1241.22 570.475 1235.36 563.167 1235.33 550.095L1235.29 528.891ZM1279.56 549.504L1279.54 540.384L1266.62 540.356L1266.64 549.476C1266.65 554.34 1269.16 557.234 1273.12 557.242C1277.07 557.25 1279.57 554.444 1279.56 549.504ZM1257.83 550.218L1257.81 540.338L1244.35 540.31L1244.37 550.19C1244.39 555.662 1246.9 558.783 1251 558.791C1255.34 558.801 1257.84 555.614 1257.83 550.218ZM1262.09 627.953C1246.59 627.92 1235.01 617.18 1234.98 601.524C1234.95 585.868 1246.48 575.176 1261.98 575.209C1277.49 575.242 1289.06 585.982 1289.09 601.638C1289.13 617.294 1277.6 627.986 1262.09 627.953ZM1262.01 586.837C1251.97 586.816 1244.61 592.576 1244.63 601.544C1244.65 610.436 1252.04 616.228 1262.07 616.249C1272.1 616.27 1279.46 610.51 1279.44 601.618C1279.42 592.65 1272.04 586.858 1262.01 586.837ZM1235.52 640.024L1235.49 628.244L1288.73 647.812L1288.76 661.491L1235.6 680.684L1235.58 668.448L1247.2 664.368L1247.15 644.152L1235.52 640.024ZM1276.59 654.246L1256.36 647.212L1256.39 661.271L1276.59 654.246ZM1235.61 685.566L1288.81 685.678L1288.86 707.338C1288.88 719.042 1281.98 726.855 1271.19 726.833C1264.35 726.818 1258.87 723.235 1256.2 717.681L1235.7 728.126L1235.67 715.51L1253.52 706.58L1253.5 697.004L1235.64 696.966L1235.61 685.566ZM1279.36 706.406L1279.34 697.058L1263 697.024L1263.02 706.372C1263.03 711.768 1266.23 715.194 1271.17 715.205C1276.18 715.215 1279.37 711.802 1279.36 706.406ZM1235.75 753.411L1235.71 734.031L1288.91 734.143L1288.95 753.523C1288.99 770.091 1278.14 781.088 1262.49 781.055C1246.91 781.022 1235.79 769.979 1235.75 753.411ZM1279.44 745.523L1245.24 745.451L1245.25 753.431C1245.27 763.615 1252.35 769.33 1262.46 769.351C1272.65 769.372 1279.47 763.687 1279.45 753.503L1279.44 745.523Z" fill="#9D4647"/>
</g>
<defs>
<filter id="filter0_f_48_147" x="0.820007" y="24.8882" width="1224.96" height="99.136" filterUnits="userSpaceOnUse" color-interpolation-filters="sRGB">
<feFlood flood-opacity="0" result="BackgroundImageFix"/>
<feBlend mode="normal" in="SourceGraphic" in2="BackgroundImageFix" result="shape"/>
<feGaussianBlur stdDeviation="2" result="effect1_foregroundBlur_48_147"/>
</filter>
<filter id="filter1_i_48_147" x="306.259" y="385.578" width="894.942" height="95.136" filterUnits="userSpaceOnUse" color-interpolation-filters="sRGB">
<feFlood flood-opacity="0" result="BackgroundImageFix"/>
<feBlend mode="normal" in="SourceGraphic" in2="BackgroundImageFix" result="shape"/>
<feColorMatrix in="SourceAlpha" type="matrix" values="0 0 0 0 0 0 0 0 0 0 0 0 0 0 0 0 0 0 127 0" result="hardAlpha"/>
<feOffset dy="4"/>
<feGaussianBlur stdDeviation="2"/>
<feComposite in2="hardAlpha" operator="arithmetic" k2="-1" k3="1"/>
<feColorMatrix type="matrix" values="0 0 0 0 0 0 0 0 0 0 0 0 0 0 0 0 0 0 0.25 0"/>
<feBlend mode="normal" in2="shape" result="effect1_innerShadow_48_147"/>
</filter>
<filter id="filter2_i_48_147" x="82.8987" y="164.224" width="742.219" height="205.6" filterUnits="userSpaceOnUse" color-interpolation-filters="sRGB">
<feFlood flood-opacity="0" result="BackgroundImageFix"/>
<feBlend mode="normal" in="SourceGraphic" in2="BackgroundImageFix" result="shape"/>
<feColorMatrix in="SourceAlpha" type="matrix" values="0 0 0 0 0 0 0 0 0 0 0 0 0 0 0 0 0 0 127 0" result="hardAlpha"/>
<feOffset dy="4"/>
<feGaussianBlur stdDeviation="2"/>
<feComposite in2="hardAlpha" operator="arithmetic" k2="-1" k3="1"/>
<feColorMatrix type="matrix" values="0 0 0 0 0 0 0 0 0 0 0 0 0 0 0 0 0 0 0.25 0"/>
<feBlend mode="normal" in2="shape" result="effect1_innerShadow_48_147"/>
</filter>
<filter id="filter3_f_48_147" x="32.676" y="535.946" width="261.188" height="204" filterUnits="userSpaceOnUse" color-interpolation-filters="sRGB">
<feFlood flood-opacity="0" result="BackgroundImageFix"/>
<feBlend mode="normal" in="SourceGraphic" in2="BackgroundImageFix" result="shape"/>
<feGaussianBlur stdDeviation="2" result="effect1_foregroundBlur_48_147"/>
</filter>
<filter id="filter4_f_48_147" x="785.13" y="601.036" width="421.949" height="76.352" filterUnits="userSpaceOnUse" color-interpolation-filters="sRGB">
<feFlood flood-opacity="0" result="BackgroundImageFix"/>
<feBlend mode="normal" in="SourceGraphic" in2="BackgroundImageFix" result="shape"/>
<feGaussianBlur stdDeviation="2" result="effect1_foregroundBlur_48_147"/>
</filter>
<filter id="filter5_f_48_147" x="34.436" y="399.618" width="258.598" height="42.176" filterUnits="userSpaceOnUse" color-interpolation-filters="sRGB">
<feFlood flood-opacity="0" result="BackgroundImageFix"/>
<feBlend mode="normal" in="SourceGraphic" in2="BackgroundImageFix" result="shape"/>
<feGaussianBlur stdDeviation="2" result="effect1_foregroundBlur_48_147"/>
</filter>
<filter id="filter6_i_48_147" x="1234.5" y="371.249" width="54.9639" height="413.862" filterUnits="userSpaceOnUse" color-interpolation-filters="sRGB">
<feFlood flood-opacity="0" result="BackgroundImageFix"/>
<feBlend mode="normal" in="SourceGraphic" in2="BackgroundImageFix" result="shape"/>
<feColorMatrix in="SourceAlpha" type="matrix" values="0 0 0 0 0 0 0 0 0 0 0 0 0 0 0 0 0 0 127 0" result="hardAlpha"/>
<feOffset dy="4"/>
<feGaussianBlur stdDeviation="2"/>
<feComposite in2="hardAlpha" operator="arithmetic" k2="-1" k3="1"/>
<feColorMatrix type="matrix" values="0 0 0 0 0 0 0 0 0 0 0 0 0 0 0 0 0 0 0.25 0"/>
<feBlend mode="normal" in2="shape" result="effect1_innerShadow_48_147"/>
</filter>
</defs>
</svg>
