<svg width="49" height="49" viewBox="0 0 49 49" fill="none" xmlns="http://www.w3.org/2000/svg">
<g opacity="0.7" clip-path="url(#clip0_42_96)">
<path d="M45.3086 13.4875C45.071 12.5383 44.5871 11.6686 43.9059 10.9663C43.2246 10.2639 42.3701 9.75383 41.4286 9.48746C37.9886 8.64746 24.2286 8.64746 24.2286 8.64746C24.2286 8.64746 10.4686 8.64746 7.02856 9.56746C6.08705 9.83383 5.23251 10.3439 4.55125 11.0463C3.86999 11.7486 3.38614 12.6183 3.14856 13.5675C2.51899 17.0586 2.21103 20.6001 2.22856 24.1475C2.20612 27.7216 2.5141 31.2901 3.14856 34.8075C3.41048 35.7272 3.90517 36.5638 4.58485 37.2364C5.26452 37.9091 6.1062 38.3951 7.02856 38.6475C10.4686 39.5675 24.2286 39.5675 24.2286 39.5675C24.2286 39.5675 37.9886 39.5675 41.4286 38.6475C42.3701 38.3811 43.2246 37.871 43.9059 37.1686C44.5871 36.4663 45.071 35.5966 45.3086 34.6475C45.9333 31.1826 46.2412 27.6681 46.2286 24.1475C46.251 20.5734 45.943 17.0049 45.3086 13.4875Z" stroke="white" stroke-width="4" stroke-linecap="round" stroke-linejoin="round"/>
<path d="M19.7286 30.6875L31.2286 24.1475L19.7286 17.6075V30.6875Z" stroke="white" stroke-width="4" stroke-linecap="round" stroke-linejoin="round"/>
</g>
<defs>
<clipPath id="clip0_42_96">
<rect width="48" height="48" fill="white" transform="translate(0.228577 0.647461)"/>
</clipPath>
</defs>
</svg>
